<svg xmlns="http://www.w3.org/2000/svg" viewBox="0 0 1086.96 369.59"><defs><style>.cls-1,.cls-2{fill:none;stroke-miterlimit:10;}.cls-1{stroke:#878686;}.cls-2{stroke:#fed586;stroke-linecap:round;stroke-width:4px;}.cls-3{fill:#333;}</style></defs><title>Asset 1</title><g id="Layer_2" data-name="Layer 2"><g id="Layer_1-2" data-name="Layer 1"><path class="cls-1" d="M944.69,365.88,947.8,369s6.22-3.11,7.77-3.11h9.33s6.22,1.55,12.44-4.66l9.33-14,4.66-3.11v-9.33l1.55-1.55,6.22-6.22v-6.22l-1.55-6.22,7.77-9.33,4.66-1.55,6.22-6.22V281.91l-3.11-4.66V271l-3.11-4.66,6.22-10.88,9.33-10.88,9.33-6.22,9.33-9.33,7.77-17.1v-3.11l-1.55-1.55-4.66,1.55-15.55,3.11-4.66-3.11v-1.55l-1.55-3.11-7.77-6.22-3.11-3.11-4.66-9.33-3.11-14-4.66-3.11-7-17.45-2.35-5.87,4.66,6.22,1.55-3.11L996,138.87h-6.22l-4.66-1.55-4.66,1.55h-6.22l-9.33-3.11-7.77-3.11h-4.66l-4.66,3.11v4.66h-4.66l-9.33-3.11V134.2L926,131.09h-4.66L916.7,128l1.55-4.66v-4.66l1.55-1.55H916.7L915.15,114l-4.66,1.55H898l-10.88,1.55-10.88,6.22h-6.22l-4.66-1.55-1.55-1.55L859.17,128,853,132.65l-3.11,4.66L851.4,142l-3.11,6.22-7.77,3.11-3.11,3.11-3.11,4.66-3.11,7.77L826.52,170v6.22l1.55,3.11,1.55,9.33-1.55,6.22L826.52,198v3.11l1.55,4.66,3.11,1.55,1.55,4.66,6.22,4.66,1.55,3.11v3.11l14,7.77,4.66,1.55,4.66-1.55,6.22-1.55,6.22,1.55,10.88-4.66H898l3.11,6.22H912l3.11,4.66L913.59,243,912,249.26l6.22,12.44,4.66,4.66,3.11,7.77v3.11l1.55,3.11,1.55,3.11-1.55,4.66-3.11,3.11-3.11,10.88L924.47,313l4.66,7.77v9.33l4.66,9.33,6.22,9.33,1.55,4.66,1.55,4.66-1.55,3.11v3.11Z"/><polyline class="cls-1" points="980.45 0.48 974.23 2.04 960.24 3.6 960.24 8.26 963.35 9.81 963.35 16.03 960.24 16.03 958.68 14.48 954.02 14.48 952.46 17.59 952.46 26.92 947.8 33.14 944.69 34.69 943.13 30.03 927.58 34.69 926.03 31.58 918.25 34.69 916.7 31.58 913.59 28.47 915.15 23.81 918.25 20.7 916.7 19.14 916.7 14.48 908.93 19.14 908.93 26.92 910.48 26.92 912.04 31.58 910.48 33.14 912.04 34.69 910.48 37.8 905.82 36.25 905.82 39.36 901.15 39.36 901.15 44.02 899.6 44.02 898.04 40.91 894.93 48.69 888.71 51.8 887.16 54.91 882.49 56.46 882.49 59.57 879.38 59.57 879.38 58.02 877.83 58.02 877.83 62.68 873.16 62.68 866.95 64.23 865.39 65.79 874.72 68.9 879.38 76.67 877.83 84.45 876.27 89.11 871.61 87.56 866.95 89.11 856.06 86 854.51 89.11 852.95 90.67 854.51 98.44 852.95 107.77 854.51 109.33 854.51 115.54 860.73 113.99 865.39 118.65 868.5 117.1 874.72 117.1 882.49 109.33 882.49 104.66 885.6 100 891.82 95.33 893.38 89.11 896.49 87.56 901.15 89.11 902.71 89.11 910.48 84.45 915.15 84.45 919.81 92.22 921.37 92.22 924.48 96.89 927.58 96.89 933.8 103.11 933.8 104.66 935.36 107.77 933.8 110.88 933.8 112.43 933.8 115.54 932.25 115.54 932.25 117.1 927.58 113.99 924.48 112.43 924.48 110.88 932.25 110.88 933.8 112.43 938.47 107.77 938.47 103.11 938.47 101.55 943.13 104.66 943.13 101.55 936.91 96.89 935.36 96.89 935.36 93.78 932.25 93.78 929.14 90.67 927.58 87.56 924.48 84.45 922.92 78.23 927.58 76.67 927.58 81.34 929.14 79.78 932.25 81.34 932.25 84.45 946.24 95.33 946.24 101.55 950.91 109.33 952.46 110.88 957.13 110.88 961.79 112.43 963.35 110.88 958.68 104.66 957.13 101.55 960.24 101.55 960.24 100 966.46 98.44 968.01 100 974.23 98.44 978.89 96.89 974.23 92.22 975.78 87.56 977.34 84.45 980.45 81.34 980.45 78.23 983.56 75.12 988.22 73.56 991.33 76.67"/><path class="cls-1" d="M230.54,337V334.9l6.27-6.27-6.27-2.09,2.09-8.36,4.18-2.09V314l6.27-6.27v-4.18h2.09l4.18-4.18-2.09-12.55-4.18-4.18v-4.18h-8.36v4.18l-6.27-2.09L218,278.44v-2.09l-4.18-4.18-2.09,2.09-2.09-8.36-8.36-8.36s-20.91,0-27.18-12.55h-6.27l-4.18,2.09-16.73-4.18-8.36-6.27-10.46-4.18-6.27-6.27,2.09-6.27-6.27-8.36-6.27-8.36L107.16,199h-2.09v-4.18l-4.18-4.18v-2.09H96.71l-6.27-16.73-6.27-2.09H82.07V176l12.55,18.82,4.18,8.36,6.27,6.27-4.18,2.09-2.09-4.18-6.27-4.18-2.09-6.27L80,188.52l2.09-2.09-6.27-8.36-6.27-16.73-4.18-2.09v-4.18L54.89,153l-6.27-8.36,2.09-4.18-4.18-4.18,2.09-2.09-6.27-2.09-2.09-8.36V113.24L38.16,107l2.09-20.91h4.18L40.25,84,38.16,73.5V69.32l8.36,4.18V67.23l-2.09-2.09V61L42.34,63,25.61,52.59,19.34,42.14,11,31.68"/><path class="cls-1" d="M435.47,349.53V339.08H425l-12.55-8.36-14.64-2.09h-4.18l-4.18-6.27L379,318.17l-4.18,4.18v-6.27h-6.27l-2.09,6.27-4.18-2.09,6.27-8.36v-4.18l-4.18-8.36-14.64-10.46H337.19l-6.27-4.18-2.09-4.18-8.36-2.09L318.37,268l-14.64,2.09H289.09l-6.27-6.27-6.27,2.09-2.09,4.18v-8.36L264,268H253.54v4.18l-4.18,6.27-6.27-4.18h-4.18l-12.55,2.09L218,268l4.18-18.82L215.9,245l-16.73,2.09L195,245l4.18-4.18v-8.36l2.09,2.09,4.18-14.64H188.72v10.46h-4.18v2.09L172,234.52l-6.27-2.09-6.27-8.36v-4.18l-2.09-4.18V205.25l2.09-6.27-2.09-8.36,10.46-8.36,2.09-4.18h12.55l2.09,2.09h6.27l4.18,2.09v-4.18l2.09-2.09,4.18-2.09,2.09,2.09,4.18-2.09,2.09,2.09,2.09,2.09L218,176l6.27,4.18v10.46l6.27,8.36,2.09,2.09,4.18-6.27V192.7l-6.27-18.82s-2.09-6.27,8.36-12.55l16.73-12.55-6.27,2.09,4.18-4.18V144.6l-2.09-4.18v-6.27h2.09v2.09l4.18-4.18V130l4.18-10.46,4.18-2.09,4.18-2.09,8.36-2.09-2.09-4.18,2.09-8.36,12.55-6.27,2.09-2.09h2.09l6.27-4.18v2.09h4.18l-6.27,4.18-2.09,4.18,2.09,4.18,6.27-6.27,12.55-4.18,2.09-4.18,4.18-2.09-2.09-6.27-4.18,6.27v2.09H310l-6.27-8.36-2.09-4.18h-2.09l-4.18-2.09,8.36-2.09h2.09V67.23l-4.18-2.09h-8.36l-8.36,8.36-6.27,8.36h-4.18L289.09,63h4.18L295.37,61l4.18-2.09,8.36-2.09,10.46,2.09,8.36-2.09,4.18-4.18,6.27-2.09,2.09-2.09,4.18-2.09"/><path class="cls-1" d="M205.45,109.05l6.27-4.18V98.6l-2.09-4.18V88.14L211.72,84l2.09,2.09,2.09-6.27L218,77.69l6.27,4.18v4.18l-2.09,6.27h2.09l2.09-2.09,2.09,2.09,2.09,2.09,2.09-4.18-2.09-4.18,2.09-6.27,6.27,2.09s4.18-4.18-2.09-6.27l-2.09-2.09H218l-2.09-6.27L213.81,61h-4.18l-2.09-4.18-4.18,2.09-4.18-2.09L180.35,73.5l6.27-2.09V75.6l12.55-8.36-2.09,4.18,6.27,2.09h2.09l8.36-2.09,2.09,2.09L218,75.6l-8.36,2.09-4.18,2.09-4.18,8.36L205.45,84l-2.09,8.36-2.09,10.46,4.18,6.27"/><polygon class="cls-1" points="261.91 79.78 255.63 83.96 255.63 86.05 249.36 86.05 247.27 90.23 245.18 94.42 241 96.51 236.81 96.51 230.54 102.78 226.36 104.87 226.36 106.96 232.63 106.96 249.36 96.51 247.27 94.42 251.45 90.23 255.63 90.23 261.91 86.05 261.91 79.78"/><path class="cls-2" d="M1003.47,251s31-194-145.5-144.5c0,0-383-234-803,46,0,0,53-29,68-4"/><path class="cls-3" d="M1031.73,258.83h-1.09v-7.22l-2.19.8v-1l3.11-1.17h.17Z"/><path class="cls-3" d="M1039.06,255.08a2.65,2.65,0,0,1-.81.65,2.2,2.2,0,0,1-1,.25,2.27,2.27,0,0,1-1.29-.36,2.36,2.36,0,0,1-.85-1,3.49,3.49,0,0,1-.3-1.46,3.55,3.55,0,0,1,.33-1.54,2.39,2.39,0,0,1,.92-1,2.63,2.63,0,0,1,1.39-.36,2.38,2.38,0,0,1,2,.95,4.13,4.13,0,0,1,.73,2.58V254a5.51,5.51,0,0,1-1,3.64,3.78,3.78,0,0,1-3,1.17H1036v-.92h.23a2.58,2.58,0,0,0,2.85-2.84Zm-1.67,0a1.67,1.67,0,0,0,1-.33,2,2,0,0,0,.67-.83v-.43a3,3,0,0,0-.46-1.73,1.41,1.41,0,0,0-2.32-.12,2.26,2.26,0,0,0-.43,1.44,2.35,2.35,0,0,0,.42,1.44A1.33,1.33,0,0,0,1037.39,255.08Z"/><path class="cls-3" d="M1046.81,252.53a2,2,0,0,1-.34,1.14,2.29,2.29,0,0,1-.91.78,2.45,2.45,0,0,1,1.06.84,2.11,2.11,0,0,1,.39,1.25,2.23,2.23,0,0,1-.75,1.76,3.28,3.28,0,0,1-3.94,0,2.24,2.24,0,0,1-.74-1.76,2.17,2.17,0,0,1,.38-1.25,2.35,2.35,0,0,1,1-.84,2.24,2.24,0,0,1-.9-.78,2,2,0,0,1-.33-1.13,2.21,2.21,0,0,1,.69-1.71,2.94,2.94,0,0,1,3.64,0A2.2,2.2,0,0,1,1046.81,252.53Zm-.88,4a1.57,1.57,0,0,0-.45-1.17,1.61,1.61,0,0,0-1.19-.45,1.53,1.53,0,0,0-1.62,1.62,1.51,1.51,0,0,0,.43,1.14,1.92,1.92,0,0,0,2.39,0A1.51,1.51,0,0,0,1045.93,256.51Zm-1.63-5.43a1.4,1.4,0,0,0-1,.4,1.64,1.64,0,0,0,0,2.13,1.55,1.55,0,0,0,2.08,0,1.6,1.6,0,0,0,0-2.11A1.38,1.38,0,0,0,1044.3,251.08Z"/><path class="cls-3" d="M1052.53,255.08a2.65,2.65,0,0,1-.81.65,2.2,2.2,0,0,1-1,.25,2.27,2.27,0,0,1-1.29-.36,2.36,2.36,0,0,1-.85-1,3.49,3.49,0,0,1-.3-1.46,3.55,3.55,0,0,1,.33-1.54,2.39,2.39,0,0,1,.92-1,2.63,2.63,0,0,1,1.39-.36,2.38,2.38,0,0,1,2,.95,4.13,4.13,0,0,1,.73,2.58V254a5.51,5.51,0,0,1-1,3.64,3.78,3.78,0,0,1-3,1.17h-.21v-.92h.23a2.58,2.58,0,0,0,2.85-2.84Zm-1.67,0a1.67,1.67,0,0,0,1-.33,2,2,0,0,0,.67-.83v-.43a3,3,0,0,0-.46-1.73,1.41,1.41,0,0,0-2.32-.12,2.26,2.26,0,0,0-.43,1.44,2.35,2.35,0,0,0,.42,1.44A1.33,1.33,0,0,0,1050.86,255.08Z"/><path class="cls-3" d="M1060.46,255.65h-2.86v-.88h2.86Z"/><path class="cls-3" d="M1067,258.83h-5.59v-.78l3-3.28a7,7,0,0,0,.91-1.21,2,2,0,0,0,.25-1,1.53,1.53,0,0,0-.4-1.1,1.41,1.41,0,0,0-1.08-.43,1.67,1.67,0,0,0-1.26.46,1.76,1.76,0,0,0-.45,1.28h-1.08a2.52,2.52,0,0,1,.76-1.9,2.81,2.81,0,0,1,2-.73,2.7,2.7,0,0,1,1.88.62,2.13,2.13,0,0,1,.69,1.66,4.88,4.88,0,0,1-1.61,3l-2.29,2.48H1067Z"/><path class="cls-3" d="M1073.49,255.2a5,5,0,0,1-.65,2.83,2.7,2.7,0,0,1-4.05,0,4.71,4.71,0,0,1-.68-2.7v-1.45a4.85,4.85,0,0,1,.65-2.79,2.75,2.75,0,0,1,4.07,0,4.68,4.68,0,0,1,.67,2.72Zm-1.08-1.48a4,4,0,0,0-.39-2,1.33,1.33,0,0,0-1.22-.63,1.31,1.31,0,0,0-1.21.63,3.88,3.88,0,0,0-.39,1.93v1.73a4,4,0,0,0,.4,2,1.33,1.33,0,0,0,1.22.66,1.31,1.31,0,0,0,1.19-.62,3.89,3.89,0,0,0,.41-2Z"/><path class="cls-3" d="M1080.22,255.2a5,5,0,0,1-.65,2.83,2.7,2.7,0,0,1-4.05,0,4.71,4.71,0,0,1-.68-2.7v-1.45a4.85,4.85,0,0,1,.65-2.79,2.75,2.75,0,0,1,4.07,0,4.68,4.68,0,0,1,.67,2.72Zm-1.08-1.48a4,4,0,0,0-.39-2,1.33,1.33,0,0,0-1.22-.63,1.31,1.31,0,0,0-1.21.63,3.88,3.88,0,0,0-.39,1.93v1.73a4,4,0,0,0,.4,2,1.33,1.33,0,0,0,1.22.66,1.31,1.31,0,0,0,1.19-.62,3.89,3.89,0,0,0,.41-2Z"/><path class="cls-3" d="M1087,255.2a5,5,0,0,1-.65,2.83,2.7,2.7,0,0,1-4.05,0,4.71,4.71,0,0,1-.68-2.7v-1.45a4.85,4.85,0,0,1,.65-2.79,2.75,2.75,0,0,1,4.07,0,4.68,4.68,0,0,1,.67,2.72Zm-1.08-1.48a4,4,0,0,0-.39-2,1.33,1.33,0,0,0-1.22-.63,1.31,1.31,0,0,0-1.21.63,3.88,3.88,0,0,0-.39,1.93v1.73a4,4,0,0,0,.4,2,1.33,1.33,0,0,0,1.22.66,1.31,1.31,0,0,0,1.19-.62,3.89,3.89,0,0,0,.41-2Z"/><path class="cls-3" d="M791.75,118.83h-5.59v-.78l3-3.28a7,7,0,0,0,.91-1.21,2,2,0,0,0,.25-1,1.53,1.53,0,0,0-.4-1.1,1.41,1.41,0,0,0-1.08-.43,1.67,1.67,0,0,0-1.26.46,1.76,1.76,0,0,0-.45,1.28H786a2.52,2.52,0,0,1,.76-1.9,2.81,2.81,0,0,1,2-.73,2.7,2.7,0,0,1,1.88.62,2.13,2.13,0,0,1,.69,1.66,4.88,4.88,0,0,1-1.61,3l-2.29,2.48h4.28Z"/><path class="cls-3" d="M798.25,115.2a5,5,0,0,1-.65,2.83,2.7,2.7,0,0,1-4.05,0,4.71,4.71,0,0,1-.68-2.7v-1.45a4.85,4.85,0,0,1,.65-2.79,2.75,2.75,0,0,1,4.07,0,4.68,4.68,0,0,1,.67,2.72Zm-1.08-1.48a4,4,0,0,0-.39-2,1.33,1.33,0,0,0-1.22-.63,1.31,1.31,0,0,0-1.21.63,3.88,3.88,0,0,0-.39,1.93v1.73a4,4,0,0,0,.4,2,1.33,1.33,0,0,0,1.22.66,1.31,1.31,0,0,0,1.19-.62,3.89,3.89,0,0,0,.41-2Z"/><path class="cls-3" d="M805,115.2a5,5,0,0,1-.65,2.83,2.7,2.7,0,0,1-4.05,0,4.71,4.71,0,0,1-.68-2.7v-1.45a4.85,4.85,0,0,1,.65-2.79,2.75,2.75,0,0,1,4.07,0,4.68,4.68,0,0,1,.67,2.72Zm-1.08-1.48a4,4,0,0,0-.39-2,1.33,1.33,0,0,0-1.22-.63,1.31,1.31,0,0,0-1.21.63,3.88,3.88,0,0,0-.39,1.93v1.73a4,4,0,0,0,.4,2,1.33,1.33,0,0,0,1.22.66,1.31,1.31,0,0,0,1.19-.62,3.89,3.89,0,0,0,.41-2Z"/><path class="cls-3" d="M811.73,115.2a5,5,0,0,1-.65,2.83,2.7,2.7,0,0,1-4.05,0,4.71,4.71,0,0,1-.68-2.7v-1.45a4.85,4.85,0,0,1,.65-2.79,2.75,2.75,0,0,1,4.07,0,4.68,4.68,0,0,1,.67,2.72Zm-1.08-1.48a4,4,0,0,0-.39-2,1.33,1.33,0,0,0-1.22-.63,1.31,1.31,0,0,0-1.21.63,3.88,3.88,0,0,0-.39,1.93v1.73a4,4,0,0,0,.4,2,1.33,1.33,0,0,0,1.22.66,1.31,1.31,0,0,0,1.19-.62,3.89,3.89,0,0,0,.41-2Z"/><path class="cls-3" d="M818.46,115.65H815.6v-.88h2.86Z"/><path class="cls-3" d="M828,118.83h-5.59v-.78l3-3.28a7,7,0,0,0,.91-1.21,2,2,0,0,0,.25-1,1.53,1.53,0,0,0-.4-1.1,1.41,1.41,0,0,0-1.08-.43,1.67,1.67,0,0,0-1.26.46,1.76,1.76,0,0,0-.45,1.28h-1.08a2.52,2.52,0,0,1,.76-1.9,2.81,2.81,0,0,1,2-.73,2.7,2.7,0,0,1,1.88.62,2.13,2.13,0,0,1,.69,1.66,4.88,4.88,0,0,1-1.61,3l-2.29,2.48H828Z"/><path class="cls-3" d="M834.46,115.2a5,5,0,0,1-.65,2.83,2.7,2.7,0,0,1-4.05,0,4.71,4.71,0,0,1-.68-2.7v-1.45a4.85,4.85,0,0,1,.65-2.79,2.75,2.75,0,0,1,4.07,0,4.68,4.68,0,0,1,.67,2.72Zm-1.08-1.48a4,4,0,0,0-.39-2,1.33,1.33,0,0,0-1.22-.63,1.31,1.31,0,0,0-1.21.63,3.88,3.88,0,0,0-.39,1.93v1.73a4,4,0,0,0,.4,2,1.33,1.33,0,0,0,1.22.66,1.31,1.31,0,0,0,1.19-.62,3.89,3.89,0,0,0,.41-2Z"/><path class="cls-3" d="M841.2,115.2a5,5,0,0,1-.65,2.83,2.7,2.7,0,0,1-4.05,0,4.71,4.71,0,0,1-.68-2.7v-1.45a4.85,4.85,0,0,1,.65-2.79,2.75,2.75,0,0,1,4.07,0,4.68,4.68,0,0,1,.67,2.72Zm-1.08-1.48a4,4,0,0,0-.39-2,1.33,1.33,0,0,0-1.22-.63,1.31,1.31,0,0,0-1.21.63,3.88,3.88,0,0,0-.39,1.93v1.73a4,4,0,0,0,.4,2,1.33,1.33,0,0,0,1.22.66,1.31,1.31,0,0,0,1.19-.62,3.89,3.89,0,0,0,.41-2Z"/><path class="cls-3" d="M848.09,110.91l-3.53,7.92h-1.14l3.52-7.64h-4.62v-.89h5.77Z"/><path class="cls-3" d="M5.75,168.83H.16v-.78l3-3.28A7,7,0,0,0,4,163.56a2,2,0,0,0,.25-1,1.53,1.53,0,0,0-.4-1.1,1.41,1.41,0,0,0-1.08-.43,1.67,1.67,0,0,0-1.26.46,1.76,1.76,0,0,0-.45,1.28H0a2.52,2.52,0,0,1,.76-1.9,2.81,2.81,0,0,1,2-.73,2.7,2.7,0,0,1,1.88.62,2.13,2.13,0,0,1,.69,1.66,4.88,4.88,0,0,1-1.61,3l-2.29,2.48H5.75Z"/><path class="cls-3" d="M12.25,165.2A5,5,0,0,1,11.6,168a2.31,2.31,0,0,1-2,.93,2.33,2.33,0,0,1-2-.91,4.71,4.71,0,0,1-.68-2.7v-1.45a4.85,4.85,0,0,1,.65-2.79,2.33,2.33,0,0,1,2-.91,2.35,2.35,0,0,1,2,.88,4.68,4.68,0,0,1,.67,2.72Zm-1.08-1.48a4,4,0,0,0-.39-2,1.33,1.33,0,0,0-1.22-.63,1.31,1.31,0,0,0-1.21.63A3.88,3.88,0,0,0,8,163.63v1.73a4,4,0,0,0,.4,2,1.33,1.33,0,0,0,1.22.66,1.31,1.31,0,0,0,1.19-.62,3.89,3.89,0,0,0,.41-2Z"/><path class="cls-3" d="M19,165.2a5,5,0,0,1-.65,2.83,2.31,2.31,0,0,1-2,.93,2.33,2.33,0,0,1-2-.91,4.71,4.71,0,0,1-.68-2.7v-1.45a4.85,4.85,0,0,1,.65-2.79,2.33,2.33,0,0,1,2-.91,2.35,2.35,0,0,1,2,.88,4.68,4.68,0,0,1,.67,2.72Zm-1.08-1.48a4,4,0,0,0-.39-2,1.33,1.33,0,0,0-1.22-.63,1.31,1.31,0,0,0-1.21.63,3.88,3.88,0,0,0-.39,1.93v1.73a4,4,0,0,0,.4,2,1.33,1.33,0,0,0,1.22.66,1.31,1.31,0,0,0,1.19-.62,3.89,3.89,0,0,0,.41-2Z"/><path class="cls-3" d="M25.89,160.91l-3.53,7.92H21.22l3.52-7.64H20.12v-.89h5.77Z"/><path class="cls-3" d="M32.46,165.65H29.6v-.88h2.86Z"/><path class="cls-3" d="M42,168.83H36.37v-.78l3-3.28a7,7,0,0,0,.91-1.21,2,2,0,0,0,.25-1,1.53,1.53,0,0,0-.4-1.1,1.41,1.41,0,0,0-1.08-.43,1.67,1.67,0,0,0-1.26.46,1.76,1.76,0,0,0-.45,1.28H36.21a2.52,2.52,0,0,1,.76-1.9,2.81,2.81,0,0,1,2-.73,2.7,2.7,0,0,1,1.88.62,2.13,2.13,0,0,1,.69,1.66,4.88,4.88,0,0,1-1.61,3l-2.29,2.48H42Z"/><path class="cls-3" d="M48.46,165.2a5,5,0,0,1-.65,2.83,2.7,2.7,0,0,1-4.05,0,4.71,4.71,0,0,1-.68-2.7v-1.45a4.85,4.85,0,0,1,.65-2.79,2.75,2.75,0,0,1,4.07,0,4.68,4.68,0,0,1,.67,2.72Zm-1.08-1.48a4,4,0,0,0-.39-2,1.33,1.33,0,0,0-1.22-.63,1.31,1.31,0,0,0-1.21.63,3.88,3.88,0,0,0-.39,1.93v1.73a4,4,0,0,0,.4,2,1.33,1.33,0,0,0,1.22.66,1.31,1.31,0,0,0,1.19-.62,3.89,3.89,0,0,0,.41-2Z"/><path class="cls-3" d="M53.41,168.83H52.32v-7.22l-2.19.8v-1l3.11-1.17h.17Z"/><path class="cls-3" d="M61.16,166h1.18v.88H61.16v2H60.07v-2H56.19v-.64L60,160.3h1.15Zm-3.74,0h2.65v-4.18l-.13.23Z"/><path class="cls-3" d="M134.75,143.83h-5.59v-.78l3-3.28a7,7,0,0,0,.91-1.21,2,2,0,0,0,.25-1,1.53,1.53,0,0,0-.4-1.1,1.41,1.41,0,0,0-1.08-.43,1.67,1.67,0,0,0-1.26.46,1.76,1.76,0,0,0-.45,1.28H129a2.52,2.52,0,0,1,.76-1.9,2.81,2.81,0,0,1,2-.73,2.7,2.7,0,0,1,1.88.62,2.13,2.13,0,0,1,.69,1.66,4.88,4.88,0,0,1-1.61,3l-2.29,2.48h4.28Z"/><path class="cls-3" d="M141.25,140.2a5,5,0,0,1-.65,2.83,2.7,2.7,0,0,1-4.05,0,4.71,4.71,0,0,1-.68-2.7v-1.45a4.85,4.85,0,0,1,.65-2.79,2.75,2.75,0,0,1,4.07,0,4.68,4.68,0,0,1,.67,2.72Zm-1.08-1.48a4,4,0,0,0-.39-2,1.33,1.33,0,0,0-1.22-.63,1.31,1.31,0,0,0-1.21.63,3.88,3.88,0,0,0-.39,1.93v1.73a4,4,0,0,0,.4,2,1.33,1.33,0,0,0,1.22.66,1.31,1.31,0,0,0,1.19-.62,3.89,3.89,0,0,0,.41-2Z"/><path class="cls-3" d="M146.2,143.83h-1.09v-7.22l-2.19.8v-1l3.11-1.17h.17Z"/><path class="cls-3" d="M154,141h1.18v.88H154v2h-1.09v-2H149v-.64l3.82-5.91H154Zm-3.74,0h2.65v-4.18l-.13.23Z"/><path class="cls-3" d="M161.46,140.65H158.6v-.88h2.86Z"/><path class="cls-3" d="M166.78,140.49v3.34h-1.12V135.3h3.15A3.16,3.16,0,0,1,171,136a2.42,2.42,0,0,1,.79,1.89,2.39,2.39,0,0,1-.78,1.91,3.3,3.3,0,0,1-2.22.67Zm0-.92h2a2,2,0,0,0,1.38-.43,1.55,1.55,0,0,0,.48-1.23,1.61,1.61,0,0,0-.48-1.22,1.89,1.89,0,0,0-1.32-.48h-2.09Z"/><path class="cls-3" d="M176.35,140.38h-2v3.45h-1.13V135.3H176a3.34,3.34,0,0,1,2.22.66,2.36,2.36,0,0,1,.78,1.91,2.3,2.3,0,0,1-.43,1.39,2.57,2.57,0,0,1-1.2.88l2,3.62v.07H178.2Zm-2-.92h1.73a2,2,0,0,0,1.33-.43,1.47,1.47,0,0,0,.5-1.16,1.55,1.55,0,0,0-.47-1.21,2,2,0,0,0-1.36-.43h-1.72Z"/><path class="cls-3" d="M185.43,139.89h-3.7v3H186v.92h-5.42V135.3H186v.92h-4.24V139h3.7Z"/><path class="cls-3" d="M189.94,140a5.29,5.29,0,0,1-2.11-1,2,2,0,0,1-.66-1.5,2.06,2.06,0,0,1,.81-1.67,3.2,3.2,0,0,1,2.09-.66,3.5,3.5,0,0,1,1.57.34,2.58,2.58,0,0,1,1.07.94,2.4,2.4,0,0,1,.38,1.31H192a1.56,1.56,0,0,0-.49-1.22,2,2,0,0,0-1.39-.44,2,2,0,0,0-1.3.37,1.22,1.22,0,0,0-.47,1,1.1,1.1,0,0,0,.44.88,4.32,4.32,0,0,0,1.51.66,7,7,0,0,1,1.66.66,2.53,2.53,0,0,1,.89.84,2.15,2.15,0,0,1,.29,1.13,2,2,0,0,1-.81,1.66,3.45,3.45,0,0,1-2.16.62,4,4,0,0,1-1.64-.34,2.76,2.76,0,0,1-1.17-.92,2.25,2.25,0,0,1-.41-1.33H188a1.47,1.47,0,0,0,.57,1.22,2.41,2.41,0,0,0,1.53.45,2.21,2.21,0,0,0,1.37-.36,1.18,1.18,0,0,0,.47-1,1.16,1.16,0,0,0-.44-1A5.07,5.07,0,0,0,189.94,140Z"/><path class="cls-3" d="M199.37,139.89h-3.7v3H200v.92h-5.42V135.3h5.36v.92h-4.24V139h3.7Z"/><path class="cls-3" d="M207.93,143.83h-1.13l-4.29-6.57v6.57h-1.13V135.3h1.13l4.31,6.6v-6.6h1.12Z"/><path class="cls-3" d="M215.65,136.22h-2.74v7.61h-1.12v-7.61h-2.74v-.92h6.6Z"/></g></g></svg>