<?xml version="1.0" encoding="utf-8"?>
<!-- Generator: Adobe Illustrator 21.0.0, SVG Export Plug-In . SVG Version: 6.00 Build 0)  -->
<svg version="1.1" id="Layer_1" xmlns="http://www.w3.org/2000/svg" xmlns:xlink="http://www.w3.org/1999/xlink" x="0px" y="0px"
	 viewBox="0 0 32 27" style="enable-background:new 0 0 32 27;" xml:space="preserve">
<style type="text/css">
	.st0{fill:#FFFFFF;}
</style>
<title>Icon 32x32</title>
<desc>Created with Sketch.</desc>
<g id="Baikal-Startup-Components">
	<g id="Advantages" transform="translate(-709.000000, -4813.000000)">
		<g id="Advantages-_x23_8" transform="translate(0.000000, 4730.000000)">
			<path id="Icon-32x32" class="st0" d="M737.3,90.7c-0.8,0-1.6,0.3-2.2,0.7l-4.9-3.7h8.3c0.7,0,1.2-0.6,1.2-1.3s-0.6-1.3-1.2-1.3
				h-9.8c-0.7-1.3-2-2.2-3.6-2.2c-1.6,0-2.9,0.9-3.6,2.2H712c-0.7,0-1.2,0.6-1.2,1.3s0.6,1.3,1.2,1.3h7.8l-4.9,3.7
				c-0.6-0.4-1.4-0.7-2.2-0.7c-2.1,0-3.7,1.7-3.7,3.8c0,2.1,1.7,3.8,3.7,3.8s3.7-1.7,3.7-3.8c0-0.3-0.1-0.7-0.1-1l5.5-4.1
				c0.4,0.6,0.9,1,1.4,1.3l-5.7,9.2c-0.2,0.4-0.3,0.9,0,1.3l3.5,5.8h-0.3c-0.8,0-1.5,0.7-1.5,1.5s0.7,1.5,1.5,1.5h9
				c0.8,0,1.5-0.7,1.5-1.5s-0.7-1.5-1.5-1.5h-0.5l3.6-5.8c0.3-0.4,0.3-0.9,0-1.3l-5.7-9.2c0.5-0.3,1-0.7,1.3-1.1l5.3,3.9
				c-0.1,0.3-0.1,0.6-0.1,1c0,2.1,1.7,3.8,3.7,3.8c2.1,0,3.7-1.7,3.7-3.8C741,92.4,739.3,90.7,737.3,90.7L737.3,90.7z M725.2,85.5
				c0.9,0,1.5,0.7,1.5,1.6c0,0.9-0.7,1.6-1.5,1.6c0,0,0,0,0,0s0,0,0,0c-0.8,0-1.5-0.7-1.5-1.6C723.7,86.2,724.3,85.5,725.2,85.5
				L725.2,85.5z M712.7,95.7c-0.7,0-1.2-0.6-1.2-1.3c0-0.7,0.5-1.3,1.2-1.3s1.2,0.6,1.2,1.3C714,95.1,713.4,95.7,712.7,95.7
				L712.7,95.7z M726.3,107H724l-3.9-6.4l3.7-6v5.4c0,0.8,0.7,1.5,1.5,1.5s1.5-0.7,1.5-1.5v-5.2l3.6,5.8L726.3,107L726.3,107z
				 M737.3,95.7c-0.7,0-1.2-0.6-1.2-1.3c0-0.7,0.5-1.3,1.2-1.3s1.2,0.6,1.2,1.3C738.5,95.1,738,95.7,737.3,95.7L737.3,95.7z"/>
		</g>
	</g>
</g>
</svg>
