<?xml version="1.0" encoding="UTF-8"?>
<svg width="32px" height="27px" viewBox="0 0 32 27" version="1.1" xmlns="http://www.w3.org/2000/svg" xmlns:xlink="http://www.w3.org/1999/xlink">
    <!-- Generator: Sketch 41.2 (35397) - http://www.bohemiancoding.com/sketch -->
    <title>Icon 32x32</title>
    <desc>Created with Sketch.</desc>
    <defs></defs>
    <g id="Baikal-Startup-Components" stroke="none" stroke-width="1" fill="none" fill-rule="evenodd">
        <g id="Advantages" transform="translate(-709.000000, -4813.000000)" fill="#4C5365">
            <g id="Advantages-#8" transform="translate(0.000000, 4730.000000)">
                <path d="M737.274,90.6782657 C736.466,90.6782657 735.722,90.9454141 735.111,91.3876598 L730.228,87.7276265 L738.532,87.7276265 C739.222,87.7276265 739.782,87.1673152 739.782,86.4759311 C739.782,85.784547 739.222,85.2242357 738.532,85.2242357 L728.778,85.2242357 C728.106,83.9105058 726.761,83 725.198,83 C723.634,83 722.289,83.9105058 721.617,85.2242357 L711.982,85.2242357 C711.291,85.2242357 710.732,85.784547 710.732,86.4759311 C710.732,87.1673152 711.291,87.7276265 711.982,87.7276265 L719.773,87.7276265 L714.89,91.3876598 C714.278,90.9454141 713.535,90.6782657 712.727,90.6782657 C710.672,90.6782657 709,92.3642023 709,94.4383546 C709,96.5115064 710.672,98.197443 712.727,98.197443 C714.782,98.197443 716.453,96.5115064 716.453,94.4383546 C716.453,94.095164 716.393,93.7689828 716.307,93.4528071 L721.822,89.3185103 C722.185,89.8748193 722.686,90.3230684 723.266,90.6452474 L717.53,99.8903835 C717.281,100.290606 717.279,100.796887 717.523,101.199111 L721.037,106.998332 L720.761,106.998332 C719.933,106.998332 719.261,107.669705 719.261,108.499166 C719.261,109.328627 719.933,110 720.761,110 L729.761,110 C730.589,110 731.261,109.328627 731.261,108.499166 C731.261,107.669705 730.589,106.998332 729.761,106.998332 L729.23,106.998332 L732.862,101.21612 C733.116,100.810895 733.117,100.295609 732.865,99.8903835 L727.129,90.6452474 C727.64,90.3610895 728.084,89.976876 728.431,89.5076153 L733.693,93.4528071 C733.608,93.7689828 733.547,94.095164 733.547,94.4383546 C733.547,96.5115064 735.219,98.197443 737.274,98.197443 C739.328,98.197443 741,96.5115064 741,94.4383546 C741,92.3642023 739.328,90.6782657 737.274,90.6782657 L737.274,90.6782657 Z M725.198,85.5023902 C726.049,85.5023902 726.742,86.2097832 726.742,87.0812674 C726.742,87.9387437 726.069,88.6351306 725.235,88.6561423 C725.223,88.6561423 725.211,88.6511395 725.198,88.6511395 C725.185,88.6511395 725.173,88.6561423 725.16,88.6561423 C724.326,88.6351306 723.654,87.9387437 723.654,87.0812674 C723.654,86.2097832 724.346,85.5023902 725.198,85.5023902 L725.198,85.5023902 Z M712.727,95.6950528 C712.05,95.6950528 711.5,95.1307393 711.5,94.4383546 C711.5,93.7449694 712.05,93.1806559 712.727,93.1806559 C713.404,93.1806559 713.953,93.7449694 713.953,94.4383546 C713.953,95.1307393 713.404,95.6950528 712.727,95.6950528 L712.727,95.6950528 Z M726.276,106.998332 L723.96,106.998332 L720.058,100.557754 L723.761,94.5894386 L723.761,100.003446 C723.761,100.832907 724.433,101.505281 725.261,101.505281 C726.089,101.505281 726.761,100.832907 726.761,100.003446 L726.761,94.7945525 L730.329,100.545748 L726.276,106.998332 L726.276,106.998332 Z M737.274,95.6950528 C736.597,95.6950528 736.047,95.1307393 736.047,94.4383546 C736.047,93.7449694 736.597,93.1806559 737.274,93.1806559 C737.951,93.1806559 738.5,93.7449694 738.5,94.4383546 C738.5,95.1307393 737.951,95.6950528 737.274,95.6950528 L737.274,95.6950528 Z" id="Icon-32x32"></path>
            </g>
        </g>
    </g>
</svg>