<?xml version="1.0" encoding="utf-8"?>
<!-- Generator: Adobe Illustrator 21.0.0, SVG Export Plug-In . SVG Version: 6.00 Build 0)  -->
<svg version="1.1" id="Layer_1" xmlns="http://www.w3.org/2000/svg" xmlns:xlink="http://www.w3.org/1999/xlink" x="0px" y="0px"
	 viewBox="0 0 32 32" style="enable-background:new 0 0 32 32;" xml:space="preserve">
<style type="text/css">
	.st0{fill:#4C5365;}
</style>
<title>Icon 25x25</title>
<desc>Created with Sketch.</desc>
<g id="Baikal-Startup-Components">
	<g id="Advantages" transform="translate(-959.000000, -4810.000000)">
		<g id="Advantages-_x23_8" transform="translate(0.000000, 4730.000000)">
			<path id="Icon-25x25" class="st0" d="M987.2,80h-24.4c-2.1,0-3.8,1.7-3.8,3.9v26.9c0,0.7,0.6,1.2,1.2,1.2h29.5
				c0.7,0,1.2-0.6,1.2-1.2V83.9C991,81.7,989.3,80,987.2,80L987.2,80z M962.8,82.5h24.4c0.7,0,1.3,0.6,1.3,1.4V87h-27v-3.2
				C961.5,83.1,962.1,82.5,962.8,82.5L962.8,82.5z M961.5,89.5h27v20h-27V89.5z M970.7,95.8c-0.5-0.5-1.3-0.5-1.8-0.1l-3.1,2.8
				c-0.3,0.2-0.4,0.6-0.4,0.9c0,0.3,0.1,0.7,0.4,0.9l3.1,2.8c0.2,0.2,0.5,0.3,0.8,0.3c0.3,0,0.7-0.1,0.9-0.4
				c0.5-0.5,0.4-1.3-0.1-1.8l-2.1-1.9l2.1-1.9C971.1,97.1,971.1,96.3,970.7,95.8z M981.4,95.7c-0.5-0.5-1.3-0.4-1.8,0.1
				c-0.5,0.5-0.4,1.3,0.1,1.8l2.1,1.9l-2.1,1.9c-0.5,0.5-0.5,1.3-0.1,1.8c0.2,0.3,0.6,0.4,0.9,0.4c0.3,0,0.6-0.1,0.8-0.3l3.1-2.8
				c0.3-0.2,0.4-0.6,0.4-0.9c0-0.3-0.1-0.7-0.4-0.9L981.4,95.7z M975.8,93.4c-0.7-0.1-1.3,0.3-1.5,1l-1.8,9.9
				c-0.1,0.7,0.3,1.3,1,1.5c0.1,0,0.1,0,0.2,0c0.6,0,1.1-0.4,1.2-1l1.8-9.9C976.9,94.2,976.5,93.5,975.8,93.4z"/>
		</g>
	</g>
</g>
</svg>
