<?xml version="1.0" encoding="UTF-8"?>
<svg width="32px" height="32px" viewBox="0 0 32 32" version="1.1" xmlns="http://www.w3.org/2000/svg" xmlns:xlink="http://www.w3.org/1999/xlink">
    <!-- Generator: Sketch 41.2 (35397) - http://www.bohemiancoding.com/sketch -->
    <title>Icon 32x32</title>
    <desc>Created with Sketch.</desc>
    <defs></defs>
    <g id="Baikal-Startup-Components" stroke="none" stroke-width="1" fill="none" fill-rule="evenodd">
        <g id="Advantages" transform="translate(-209.000000, -4810.000000)" fill="#4C5365">
            <g id="Advantages-#8" transform="translate(0.000000, 4730.000000)">
                <path d="M239.971,105.582 L232.647,98.259 C233.538,96.539 234.05,94.592 234.05,92.525 C234.05,85.619 228.431,80 221.524,80 C214.618,80 209,85.619 209,92.525 C209,99.431 214.618,105.05 221.524,105.05 C223.592,105.05 225.538,104.538 227.259,103.647 L234.582,110.971 C235.269,111.657 236.176,111.998 237.099,111.998 C238.081,111.998 239.08,111.611 239.846,110.846 C241.331,109.36 241.387,107 239.971,105.582 L239.971,105.582 Z M221.524,102.55 C215.997,102.55 211.5,98.053 211.5,92.525 C211.5,86.997 215.997,82.5 221.524,82.5 C227.053,82.5 231.55,86.997 231.55,92.525 C231.55,98.053 227.053,102.55 221.524,102.55 L221.524,102.55 Z M238.078,109.078 C237.566,109.589 236.792,109.644 236.35,109.203 L229.399,102.252 C230.079,101.7 230.7,101.079 231.252,100.399 L238.202,107.349 C238.645,107.792 238.589,108.567 238.078,109.078 Z M221.524,86.938 C218.443,86.938 215.937,89.444 215.937,92.525 C215.937,93.216 216.497,93.775 217.187,93.775 C217.878,93.775 218.437,93.216 218.437,92.525 C218.437,90.823 219.822,89.438 221.524,89.438 C222.215,89.438 222.774,88.879 222.774,88.188 C222.774,87.498 222.215,86.938 221.524,86.938 Z" id="Icon-32x32"></path>
            </g>
        </g>
    </g>
</svg>