<svg xmlns="http://www.w3.org/2000/svg" viewBox="0 0 585.44 594.74"><defs><style>.cls-1{fill:#333;}.cls-2,.cls-3{fill:none;stroke:#999;stroke-linecap:round;stroke-width:0.75px;}.cls-2{stroke-linejoin:round;}.cls-3{stroke-miterlimit:10;}.cls-4{fill:#999;}</style></defs><title>Asset 3</title><g id="Layer_2" data-name="Layer 2"><g id="Layer_2-2" data-name="Layer 2"><path class="cls-1" d="M26.33,593.76H20.51v-56H0v-5.27H46.84v5.27H26.33Z"/><path class="cls-1" d="M60,568.66v25.1H54.19V532.48H76.11q9,0,14.29,4.86t5.33,13.06a18,18,0,0,1-3.48,11.13,16.83,16.83,0,0,1-9.64,6.2l14.82,26H90.67l-14.1-25.1H60Zm0-31v25.86H75.64q6.67,0,10.38-3.4t3.72-9.56q0-6.07-3.8-9.49t-10.51-3.42Z"/><path class="cls-1" d="M142.1,588.49v5.27h-37V532.48h37v5.27H110.89v22h29.64V565H110.89v23.53Z"/><path class="cls-1" d="M176,593.76h-5.78l-22.93-61.28h6.16l19.54,54.06h.25l19.58-54.06h6.12Z"/><path class="cls-1" d="M230.14,531.5q12.82,0,20.34,8.54t7.52,23.1q0,14.57-7.52,23.08t-20.34,8.51q-12.83,0-20.32-8.51t-7.5-23.08q0-14.57,7.52-23.1T230.14,531.5Zm16,12.49q-5.92-7.09-16-7.09t-16,7.09q-5.9,7.09-5.9,19.15t5.92,19.11q5.92,7.09,15.95,7.09t16-7.09q5.92-7.09,5.92-19.11T246.13,544Z"/><path class="cls-1" d="M272.78,568.66v25.1H267V532.48h21.91q9,0,14.29,4.86t5.33,13.06a18,18,0,0,1-3.48,11.13,16.84,16.84,0,0,1-9.64,6.2l14.82,26h-6.75l-14.1-25.1H272.78Zm0-31v25.86h15.67q6.67,0,10.38-3.4t3.72-9.56q0-6.07-3.8-9.49t-10.51-3.42Z"/><path class="cls-1" d="M358.57,593.76h-20.3V532.48H358q8,0,13,4.1a13.23,13.23,0,0,1,5,10.72,14.3,14.3,0,0,1-3.33,9.58,15.46,15.46,0,0,1-9.11,5.08v.17a18.72,18.72,0,0,1,11.28,4.82,14,14,0,0,1,4.44,10.72,14.17,14.17,0,0,1-5.52,11.74Q368.12,593.76,358.57,593.76Zm-18.18-59.33v26.84h17q7.39,0,11.87-3.8a12.62,12.62,0,0,0,4.48-10.13A11.46,11.46,0,0,0,369.4,538q-4.38-3.55-11.59-3.55Zm0,57.38h18.09q8.66,0,13.63-3.84a13.24,13.24,0,0,0-.25-20.87q-5.22-3.86-14.31-3.86H340.39Z"/><path class="cls-1" d="M404.48,593.76h-2.12V567l-22.47-34.49h2.55l20.89,32.19h.17l20.85-32.19h2.51L404.48,567Z"/><path class="cls-1" d="M435.14,567v26.76H433V532.48h19q9.17,0,14.44,4.61t5.27,12.68a16.33,16.33,0,0,1-3.91,11.17A17.87,17.87,0,0,1,457,566.58l16.18,27.18h-2.42l-16-26.84q-1.53.09-2.8.08Zm0-32.53V565H452q8.2,0,12.89-4.1t4.69-11.19q0-7.22-4.67-11.25t-13-4Z"/><path class="cls-1" d="M505.17,531.63q12.36,0,19.68,8.52t7.33,23q0,14.48-7.3,23t-19.71,8.52q-12.44,0-19.73-8.52t-7.28-23q0-14.44,7.3-23T505.17,531.63Zm0,2q-11.42,0-18.16,8t-6.73,21.51q0,13.51,6.75,21.51t18.13,8q11.34,0,18.11-8t6.77-21.51q0-13.5-6.75-21.49T505.17,533.62Z"/><path class="cls-1" d="M542.25,593.76h-2.12V532.48h2.33l40.69,57.25h.17V532.48h2.12v61.28h-2L542.42,536h-.17Z"/><path class="cls-2" d="M191.28,407.56s20-27.21,21.48-30.07,10-51.55,10-51.55-14.32-20-11.46-65.87c0,0-4.3,14.32-17.18,0-1.9-2.11-2.56-4.62-3.17-7.49-3-13.83-2.39-27.24-1.12-41.19l-1.43-7.16-2.86,1.43,1.43-8.59v-5.73l-1.43-1.43-1.43,2.86s-1.43-24.34,1.43-28.64l2.86-4.3h-4.3V134.06c0-.27-.74-1-.9-1.2-.82-1.13-1.59-2.3-2.33-3.48a83.88,83.88,0,0,1-6.55-12.8,75.63,75.63,0,0,1-5.08-18.9,63.06,63.06,0,0,1,1.2-23,67.93,67.93,0,0,1,12.27-25c7.68-10,17.59-18.21,28.15-25,13.57-8.78,28.64-17.11,44.45-21A115.64,115.64,0,0,1,272.85.86a132.31,132.31,0,0,1,26.73.42,134,134,0,0,1,32.93,8.2A146.08,146.08,0,0,1,368.59,30a188.46,188.46,0,0,1,34.61,35.32s11.46,18.62,12.89,31.5l-2.86,14.32,7.16,11.46s12.89,17.18,15.75,20-12.89-10-12.89-10l10,14.32-7.16-2.86s4.3,15.75,5.73,18.62l4.3,8.59-5.73-4.3,1.43,18.62s2.86,0,4.3,4.3-1.43,25.77-1.43,25.77-7.16,14.32-7.16,30.07c0,0-4.3,18.62-15.75,20-2.76.34-4.6-.31-5.81-1.49-3.82-3.75-1.35-12.83-1.35-12.83l4.3-27.21h1.43l1.43,2.86v7.16l-1.43,4.3V240l2.86-1.43h4.3l2.86-7.16L419,222.84l-4.3-7.16v7.16L408.93,220v-35.8l-1.43-14.32,1.43-20s1.43-21.48-8.59-40.09c-4.15-7.71-11-14.72-17.13-20.85-14.3-14.39-31.55-26-50.74-32.76a117.16,117.16,0,0,0-21.17-5.28c-10.5-1.6-20-2.35-30.13.93a172.39,172.39,0,0,0-19.12,7.46c-17.88,8.22-34.89,19.57-47.21,35.11a81.12,81.12,0,0,0-16.4,35.45l-8.59,21.48,1.43,7.16,2.86-8.59,10-15.75s34.37-47.25,87.35-45.82c0,0,64.44,0,78.76,11.46,0,0,17.18,10,15.75,24.34a14.58,14.58,0,0,1-7.93,11.65c-3.08,1.62-7,3.15-10.58,2.55-2.86-.48-5.77-2.12-8.59-2.94-7.78-2.26-16.53-3.62-24.45-1.24-9.61,2.88-18.61,5.66-28.65,5.77-6,.07-13-5.84-18.48-8.08-7-2.83-15.53-5.67-23-3.42,0,0-15.75,5.73-20-5.73-4.2-11.2,10.65-23.08,19.84-25.72a114.42,114.42,0,0,1,20.67-3.77c27.28-2.64,55,1.82,81.2,9.45,0,0,35.8,12.89,35.8,57.28s-17.18,32.93-17.18,32.93l-14.32-10s-22.91-20-40.09,4.3h10l30.07-1.43,5.73,4.3,4.3,5.73,1.43,2.86-7.16-1.43s-7.16-2.86-14.32-1.43-35.8-7.16-35.8-7.16,12.89-31.5,48.69-8.59l8.59,4.3h2.86s17.18,0,7.16-17.18-44.39-18.62-44.39-18.62-25.77,2.86-27.21,22.91c0,0-2.86,14.32,0,21.48s15.75,22.91,15.75,22.91,12.89,14.32,0,22.91a12.34,12.34,0,0,1-1.56-.94,35.71,35.71,0,0,0-4.08-2c-3.45-1.4-7.49-2.44-11.17-1.35-5.39,1.59-6.35,6.68-7.53,11.42a19.48,19.48,0,0,1-10,0s-1.43-21.48-24.34-7.16c0,0-11.46-4.3-7.16-14.32l7.16-7.16s0-2.86-4.3,0-27.21,38.66-30.07,50.12-25.77-24.34-25.77-24.34-12.89-24.34,18.62-27.21l31.5-2.86s20-8.59,21.48-18.62a194.93,194.93,0,0,0,1.43-22.91s-7.16-31.5-44.39-22.91-31.5,48.69-31.5,48.69l8.59-2.86,10-7.16s17.18-25.77,50.12-7.16l-15-3.72s12.18,6.58,12.18,9.44-41.53,1.43-43,0-8.59,8.59-8.59,8.59l-7.16,12.89s-1.43-2.86,7.16-7.16l2.86-2.86s15.75,8.59,35.8,0l-12.89,7.16s-25.77-1.43-34.37,8.59c0,0-12.89,8.59-10,18.62,0,0-4.3,4.3,12.89,34.37,0,0,18.62,48.69,27.21,61.57s21.48,38.66,24.34,40.09,25.77,15.75,57.28,0c0,0,15.75-20-12.89-30.07A38.86,38.86,0,0,0,288,339.73a53.25,53.25,0,0,0-10.23,6.9c-2.36,2-7,5.34-7.58,8.41-.92,4.53,4.28,9.06,7.76,11,6.62,3.67,14.78,4.3,22.19,4.3,31.5,0,40.09-7.16,40.09-7.16s15.48-12.76,38.66-31.5c10.6-8.57,23.05-20.27,24.34-38.66V267.23s-7.16-8.59-5.73-11.46,1-7.56,1.09-10.73q.15-6.1.3-12.2c0-1.57.35-3.28-.26-4.67-1-2.24-3.95-4.51-5.7-6.09-7.7-6.95-17.87-11.52-28.37-9.27-20,4.29-20,7.16-20,7.16,0,9.47,7.14,17.41,14.81,21.84,6.65,3.84,13.74,9.14,16.82,16.42a15.81,15.81,0,0,1,1.3,6.13s2.86,15.75-15.75,31.5a284.36,284.36,0,0,1-24.43,18.25q-5.08,3.43-10.25,6.72c-2.73,1.73-5.43,4.3-8.69,5-3.71.78-8.15.12-12,.12-7.76,0-14,.7-21.07-3-5.1-2.63-10.12-5.35-15-8.41-10.37-6.53-23-15.26-27.1-27.46q-.21-.63-.38-1.27s10-2.86,10-17.18a50.39,50.39,0,0,0,14.32-5.73c7.16-4.3,32.93-5.73,32.93-5.73h11.46s40.09,2.86,45.82,7.16,5.73,11.46,5.73,11.46-4.3,1.43-5.73,4.3a26.72,26.72,0,0,1-4.3,5.73,164.36,164.36,0,0,1-15.92,8.8c-8.79,4.26-19.95,8.7-30.05,9.82l-21.48,1.43s-11.3,2.85-29.92-21.49v-7.16l4.3,2.86s14.32,11.46,15.75,12.89,18.62-1.43,24.34,2.86c0,0,17.18-5.73,35.8-4.3l14.32-11.46,4.3-7.16s-57.28,4.3-95.94,1.43c0,0-2.86-2.86,0-4.3s22.91-4.3,28.64-4.3h20a50.63,50.63,0,0,1,8.59-1.43c2.86,0,28.64,4.3,32.93,4.3l8.59,1.43s5.73,0,5.73-4.3-4.3-10-4.3-10,0-2.86,5.73,0c4.4,2.2,9.31,3.28,13.81,5.26,2.08.91,4.51,2,6.08,3.65,2.13,2.31,2.23,6,2.72,9a6.92,6.92,0,0,1,.1,2.34,7.13,7.13,0,0,1-.54,1.55c-6.24,14.29-12.33,28.68-19.31,42.63-6.48,9.26-13.16,18.55-18.64,28.45-.63,1.14-1.25,2.29-1.95,3.38-2.26,3.52-5.34,6.53-8.05,9.69,0,0-35.8,37.23-83.05-10,0,0-24.34-18.62-27.21-18.62s-7.16,28.64-7.16,28.64l-7.16,20L207,416.15l-4.3,10"/><path class="cls-3" d="M344.63,175.82s-3,8.36,1.3,9.79,15.8.41,15.8.41,2.91-5.14,0-8.5C361.73,177.51,350.49,173.19,344.63,175.82Z"/><path class="cls-3" d="M264.85,187.26s8.05-8.81-3.4-11.68a67.74,67.74,0,0,0-10.4,2l-1.41.42a30.23,30.23,0,0,0-9.67,4.7l-1.43,1.43L250,185.61a6.92,6.92,0,0,1,0-5.73"/><path class="cls-2" d="M344.5,275.82l2.27-.38,6.25-1a39.91,39.91,0,0,1-4.3,5.56,22.72,22.72,0,0,1-4.23,3v-5.69a20.35,20.35,0,0,1,4,0,3.19,3.19,0,0,1-1.11,1.38h-1.43l4.3-2.86-1.43,2.86-2.86,1.43"/><polyline class="cls-2" points="257.15 275.82 264.31 275.82 265.74 282.98 261.45 280.12 257.15 277.25 261.45 277.25 262.88 278.69 261.45 278.69 260.01 278.69 262.88 277.25 264.31 280.12 262.88 280.12 261.45 275.82 264.31 281.55 262.88 277.25 262.88 277.25"/><path class="cls-2" d="M275.77,293s35.21-3,59.13-1.5"/><path class="cls-3" d="M275.77,291.57"/><path class="cls-4" d="M262.63,278.52a1.13,1.13,0,0,0,0-2.25,1.13,1.13,0,0,0,0,2.25Z"/><path class="cls-4" d="M258.58,277.69a1.13,1.13,0,0,0,0-2.25,1.13,1.13,0,0,0,0,2.25Z"/><path class="cls-4" d="M257.74,277.55a1.13,1.13,0,0,0,0-2.25,1.13,1.13,0,0,0,0,2.25Z"/><path class="cls-4" d="M257.46,277.41a1.13,1.13,0,0,0,0-2.25,1.13,1.13,0,0,0,0,2.25Z"/><path class="cls-4" d="M257.32,277.27a1.13,1.13,0,0,0,0-2.25,1.13,1.13,0,0,0,0,2.25Z"/><path class="cls-4" d="M257.18,276.85a1.13,1.13,0,0,0,0-2.25,1.13,1.13,0,0,0,0,2.25Z"/><path class="cls-4" d="M348.42,277.69a1.13,1.13,0,0,0,0-2.25,1.13,1.13,0,0,0,0,2.25Z"/><path class="cls-4" d="M346.8,276.56a3.35,3.35,0,0,1-1.17,2.37c-1.08,1,.52,2.56,1.59,1.59a5.63,5.63,0,0,0,1.83-4c.07-1.45-2.18-1.44-2.25,0Z"/><path class="cls-4" d="M350.52,277.27a1.13,1.13,0,0,0,0-2.25,1.13,1.13,0,0,0,0,2.25Z"/><path class="cls-4" d="M349.57,274.31a1.65,1.65,0,0,0-1.08.25c-.24.15-.4.48-.62.6q.27.1-.14,0a1.6,1.6,0,0,0-.55,0,1.62,1.62,0,0,0-.89.35,2.08,2.08,0,0,0-.6,1.76,6.6,6.6,0,0,1-.67,2.91c-.63,1.3,1.31,2.44,1.94,1.14a9.52,9.52,0,0,0,.76-2,4.65,4.65,0,0,0,.22-2q.08-.55-.54.12l.3,0a2,2,0,0,0,.83,0,3.48,3.48,0,0,0,1-.82c1.44.13,1.43-2.12,0-2.25Z"/><path class="cls-3" d="M265.74,275.82s0,10,2.86,11.46"/><path class="cls-3" d="M344.69,273.94s-.92,11.26-2.7,13"/><path class="cls-4" d="M259.3,278.68a3.79,3.79,0,0,1,2.67,2.09,1.5,1.5,0,1,0,2.59-1.51,6.66,6.66,0,0,0-4.46-3.46c-1.88-.42-2.68,2.47-.8,2.89Z"/><path class="cls-4" d="M256.67,276.21a7.7,7.7,0,0,0,6.68,1.84l-.8-2.89-.23.07c-1.84.56-1.06,3.46.8,2.89l.23-.07a1.5,1.5,0,0,0-.8-2.89,4.47,4.47,0,0,1-3.76-1.07c-1.44-1.28-3.57.84-2.12,2.12Z"/><path class="cls-4" d="M256.75,277.64a1.5,1.5,0,0,0,0-3,1.5,1.5,0,0,0,0,3Z"/><path class="cls-4" d="M260.22,277.92a6.14,6.14,0,0,1,1.93.21,1.08,1.08,0,0,1,.22.11s-.2-.3-.24-.27-.15.92-.18,1l1.45-1.1c.37,0,.32.16.52.34s-.32.32,0,0a3.93,3.93,0,0,1,.46-.43,1.55,1.55,0,0,0,.54-2.05,1.51,1.51,0,0,0-2.05-.54,4,4,0,0,0-2,3.14,2.63,2.63,0,0,0,2.49,2.59,1.52,1.52,0,0,0,1.45-1.1c.42-1.39.54-3.1-.8-4a6,6,0,0,0-3.83-.84,1.54,1.54,0,0,0-1.5,1.5,1.51,1.51,0,0,0,1.5,1.5Z"/><path class="cls-4" d="M261.51,279.51c1.36-.2,1.62,1.88,2.23,2.65s1.58,1.47,2.26,2.38a.38.38,0,0,0,.65-.38,3.53,3.53,0,0,0-1.77-1.67c-.92-.53-1.39-1.48-2.34-2a.38.38,0,0,0-.45.59,11,11,0,0,0,3.12,2.72.38.38,0,0,0,.56-.32,23,23,0,0,0-.45-3.42c-.09-.42-.73-.31-.74.1l0,1.35a.38.38,0,0,0,.74.1c.44-1.52,2-6.54-.71-6.75a.38.38,0,0,0-.36.47c.07.23.43.79.48,1a4.17,4.17,0,0,1-.18,2.6c-.16.45.56.65.72.2a5.19,5.19,0,0,0,.45-2.08c-.06-.75-.53-1.18-.74-1.9l-.36.47c1.59.13.21,5.07,0,5.8l.74.1,0-1.35-.74.1a21.7,21.7,0,0,1,.43,3.22l.56-.32a10.52,10.52,0,0,1-3-2.6l-.45.59c.79.4,1.16,1.21,1.87,1.7s1.52.75,2,1.65l.65-.38a12.3,12.3,0,0,0-1.35-1.61,8.06,8.06,0,0,1-1.75-2.46,2,2,0,0,0-2.23-1.3c-.48.07-.27.79.2.72Z"/><path class="cls-4" d="M345.1,274.27a35.4,35.4,0,0,1-1.75,10.38.38.38,0,0,0,.69.29c.71-1.33,2-2,3.09-2.91a32.83,32.83,0,0,0,3.21-3.2l-.59-.45c-.56,1.27-1.65,2.76-3.11,3.05-1.15.23-.92,0-1-.92-.11-.74.05-1.71,0-2.46a2.53,2.53,0,0,1,.51-2.19c.71-1,1.14-.91,2.25-1.08l5-.75-.2-.72a12.9,12.9,0,0,1-7.22.4l-.1.74a18.57,18.57,0,0,0,2.13.09c.92,0,3.19-1.16,2.27,2.1-.21.74-1.53,2-1.93,2.72-.23.43.42.81.65.38a40.26,40.26,0,0,1,2.54-3.41,1.9,1.9,0,0,0,.38-1.84,1.85,1.85,0,0,0-1.52-1c-1.49-.2-3,.4-4.52.19-.42-.06-.51.64-.1.74a13.65,13.65,0,0,0,7.62-.4.38.38,0,0,0-.2-.72l-5,.75c-.93.14-2.31.08-3,.91a3.1,3.1,0,0,0-.41,2,39.42,39.42,0,0,1-.13,5.18.38.38,0,0,0,.38.38,6.15,6.15,0,0,0,5.34-3.77c.16-.36-.28-.8-.59-.45a32.16,32.16,0,0,1-4.22,4,7.16,7.16,0,0,0-2.2,2.29l.69.29a36,36,0,0,0,1.78-10.58.38.38,0,0,0-.75,0Z"/></g></g></svg>