<svg xmlns="http://www.w3.org/2000/svg" viewBox="0 0 587.18 63.24"><defs><style>.cls-1{fill:#fff;}</style></defs><title>white-words</title><g id="Layer_2" data-name="Layer 2"><g id="Layer_2-2" data-name="Layer 2"><path class="cls-1" d="M26.33,62.26H20.51v-56H0V1H46.84V6.24H26.33Z"/><path class="cls-1" d="M60,37.16v25.1H54.19V1H76.1q9,0,14.29,4.86T95.73,18.9A18,18,0,0,1,92.24,30a16.84,16.84,0,0,1-9.64,6.2l14.82,26H90.67l-14.1-25.1H60Zm0-31V32H75.64q6.67,0,10.38-3.4t3.72-9.56q0-6.07-3.8-9.49T75.42,6.16Z"/><path class="cls-1" d="M142.1,57v5.27h-37V1h37V6.24H110.89v22h29.64v5.18H110.89V57Z"/><path class="cls-1" d="M177.69,62.26h-5.78L149,1h6.16L174.67,55h.25L194.51,1h6.11Z"/><path class="cls-1" d="M231.88,0q12.83,0,20.34,8.54t7.52,23.1q0,14.57-7.52,23.08t-20.34,8.51q-12.83,0-20.32-8.51t-7.49-23.08q0-14.57,7.52-23.1T231.88,0Zm16,12.49q-5.92-7.09-16-7.09t-16,7.09Q210,19.58,210,31.64t5.92,19.11q5.92,7.09,15.95,7.09t16-7.09q5.92-7.09,5.92-19.11T247.87,12.49Z"/><path class="cls-1" d="M274.52,37.16v25.1h-5.78V1h21.91q9,0,14.29,4.86t5.33,13.06A18,18,0,0,1,306.8,30a16.84,16.84,0,0,1-9.64,6.2l14.82,26h-6.75l-14.1-25.1H274.52Zm0-31V32h15.67q6.67,0,10.38-3.4t3.71-9.56q0-6.07-3.8-9.49T290,6.16Z"/><path class="cls-1" d="M360.31,62.26H340V1h19.71q8,0,13,4.1a13.23,13.23,0,0,1,5,10.72,14.3,14.3,0,0,1-3.33,9.58,15.47,15.47,0,0,1-9.11,5.08v.17a18.71,18.71,0,0,1,11.28,4.82,14,14,0,0,1,4.44,10.72,14.17,14.17,0,0,1-5.52,11.74Q369.86,62.26,360.31,62.26ZM342.13,2.93V29.77h17q7.39,0,11.87-3.8a12.62,12.62,0,0,0,4.48-10.13,11.47,11.47,0,0,0-4.37-9.36q-4.38-3.55-11.6-3.55Zm0,57.38h18.09q8.67,0,13.63-3.84a12.4,12.4,0,0,0,5-10.34,12.4,12.4,0,0,0-5.22-10.53q-5.22-3.86-14.31-3.86H342.13Z"/><path class="cls-1" d="M406.22,62.26h-2.12V35.46L381.63,1h2.55l20.89,32.19h.17L426.09,1h2.51L406.22,35.46Z"/><path class="cls-1" d="M436.88,35.5V62.26h-2.12V1h19Q463,1,468.22,5.58t5.27,12.68a16.34,16.34,0,0,1-3.91,11.17,17.87,17.87,0,0,1-10.83,5.65l16.18,27.18h-2.42l-16-26.84q-1.53.09-2.8.08Zm0-32.53V33.55h16.86q8.2,0,12.89-4.1t4.69-11.19q0-7.22-4.67-11.25t-13-4Z"/><path class="cls-1" d="M506.91.13q12.36,0,19.68,8.52t7.33,23q0,14.48-7.3,23t-19.71,8.52q-12.45,0-19.73-8.52t-7.28-23q0-14.44,7.3-23T506.91.13Zm0,2q-11.43,0-18.16,8T482,31.6q0,13.51,6.75,21.51t18.13,8q11.34,0,18.11-8T531.8,31.6q0-13.5-6.75-21.49T506.91,2.12Z"/><path class="cls-1" d="M544,62.26h-2.12V1h2.33l40.69,57.25h.17V1h2.13V62.26h-2L544.16,4.54H544Z"/></g></g></svg>