<svg xmlns="http://www.w3.org/2000/svg" viewBox="0 0 594.91 658.44"><defs><style>.cls-1{fill:#fff;}.cls-2,.cls-3{fill:none;}.cls-2{stroke:#000;stroke-miterlimit:10;}.cls-3{stroke:#fff;stroke-linecap:round;stroke-linejoin:round;stroke-width:0.75px;}</style></defs><title>white-logo</title><g id="Layer_2" data-name="Layer 2"><g id="Layer_2-2" data-name="Layer 2"><path class="cls-1" d="M26.48,657.47H20.66v-56H.15v-5.27H47v5.27H26.48Z"/><path class="cls-1" d="M60.12,632.37v25.1H54.34V596.18H76.25q9,0,14.29,4.86t5.33,13.06a18,18,0,0,1-3.48,11.13,16.84,16.84,0,0,1-9.64,6.2l14.82,26H90.82l-14.1-25.1H60.12Zm0-31v25.86H75.79q6.67,0,10.38-3.4t3.72-9.56q0-6.07-3.8-9.49t-10.51-3.42Z"/><path class="cls-1" d="M142.25,652.2v5.27h-37V596.18h37v5.27H111v22h29.64v5.18H111V652.2Z"/><path class="cls-1" d="M177.84,657.47h-5.78l-22.93-61.28h6.16l19.54,54.06h.25l19.58-54.06h6.11Z"/><path class="cls-1" d="M232,595.21q12.83,0,20.34,8.54t7.52,23.1q0,14.57-7.52,23.08T232,658.44q-12.83,0-20.32-8.51t-7.49-23.08q0-14.57,7.52-23.1T232,595.21Zm16,12.49q-5.92-7.09-16-7.09t-16,7.09q-5.9,7.09-5.9,19.15T216.08,646q5.92,7.09,15.95,7.09T248,646q5.92-7.09,5.92-19.11T248,607.69Z"/><path class="cls-1" d="M274.67,632.37v25.1h-5.78V596.18h21.91q9,0,14.29,4.86t5.33,13.06a18,18,0,0,1-3.48,11.13,16.84,16.84,0,0,1-9.64,6.2l14.82,26h-6.75l-14.1-25.1H274.67Zm0-31v25.86h15.67q6.67,0,10.38-3.4t3.71-9.56q0-6.07-3.8-9.49t-10.51-3.42Z"/><path class="cls-1" d="M360.46,657.47h-20.3V596.18h19.71q8,0,13,4.1a13.23,13.23,0,0,1,5,10.72,14.3,14.3,0,0,1-3.33,9.58,15.47,15.47,0,0,1-9.11,5.08v.17a18.71,18.71,0,0,1,11.28,4.82,14,14,0,0,1,4.44,10.72,14.17,14.17,0,0,1-5.52,11.74Q370,657.47,360.46,657.47Zm-18.18-59.33V625h17q7.39,0,11.87-3.8A12.62,12.62,0,0,0,375.66,611a11.47,11.47,0,0,0-4.37-9.36q-4.38-3.55-11.6-3.55Zm0,57.38h18.09q8.67,0,13.63-3.84a13.24,13.24,0,0,0-.25-20.87q-5.22-3.86-14.31-3.86H342.28Z"/><path class="cls-1" d="M406.37,657.47h-2.12v-26.8l-22.47-34.49h2.55l20.89,32.19h.17l20.85-32.19h2.51l-22.38,34.49Z"/><path class="cls-1" d="M437,630.71v26.76h-2.12V596.18h19q9.17,0,14.44,4.61t5.27,12.68a16.34,16.34,0,0,1-3.91,11.17,17.87,17.87,0,0,1-10.83,5.65l16.18,27.18h-2.42l-16-26.84q-1.53.09-2.8.08Zm0-32.53v30.58h16.86q8.2,0,12.89-4.1t4.69-11.19q0-7.22-4.67-11.25t-13-4Z"/><path class="cls-1" d="M507.06,595.33q12.36,0,19.68,8.52t7.33,23q0,14.48-7.3,23t-19.71,8.52q-12.45,0-19.73-8.52t-7.28-23q0-14.44,7.3-23T507.06,595.33Zm0,2q-11.43,0-18.16,8t-6.73,21.51q0,13.51,6.75,21.51t18.13,8q11.34,0,18.11-8t6.77-21.51q0-13.5-6.75-21.49T507.06,597.33Z"/><path class="cls-1" d="M544.14,657.47H542V596.18h2.33L585,653.43h.17V596.18h2.13v61.28h-2l-41.07-57.72h-.17Z"/><path class="cls-2" d="M212.6,413.59"/><path class="cls-2" d="M202.89,447.19"/><path class="cls-1" d="M594.38,583.38l.16,1c-3-5-.94-1.06-4.14-7.9-3.77-8.05-7.36-16.18-11.54-24-8.6-16.17-20.16-30.82-36.82-39.16-25.07-12.56-49.68-26.51-75-38.41-7.2-3.36-13.91-7.66-21-11.16a69.08,69.08,0,0,0-11-4.47c-2.27-.67-7-.29-8.81-1.59-3-2.14-4-8.66-5.43-11.91a86.76,86.76,0,0,0-8.05-15.25c-4.67-6.81-12.56-15.26-21.17-16.49l-4.5-4.13s-3-19.29-2-25.64c6.35-7.14,11.52-16,12.32-27.52V330.94l.66-10a16.7,16.7,0,0,0,1.82,6.4c1.16,2.23,3.87,2.43,6.12,2.15,11.45-1.43,15.75-20.05,15.75-20.05,0-15.75,7.16-30.07,7.16-30.07s2.86-21.47,1.43-25.77-4.3-4.3-4.3-4.3l-1.43-18.61L430.3,235l-4.3-8.59c-1.43-2.86-5.72-18.61-5.72-18.61l7.16,2.86-10-14.32s15.75,12.89,12.89,10-15.75-20.05-15.75-20.05l-7.16-11.46,2.86-14.32c-1.43-12.88-12.89-31.5-12.89-31.5C328.63,38.83,244.15,68.9,244.15,68.9,115.28,119,178.28,197.77,178.28,197.77v25.78h4.3l-2.87,4.3c-2.86,4.29-1.43,28.63-1.43,28.63l1.43-2.86,1.43,1.43v5.73l-1.43,8.59,2.87-1.43L184,275.1c-1.27,13.95-1.84,27.36,1.12,41.19.61,2.87,1.28,5.39,3.17,7.49,12.89,14.32,17.19,0,17.19,0-2.87,45.83,11.45,65.87,11.45,65.87s-2,11.5-4.28,23.65l-.05.29a39.31,39.31,0,0,0-8.38,5.28c-9,6.79-16.8,15.11-24.09,23.63-2.95,3.45-5.6,7.21-8.8,10.42-1.44,1.44-2.81,2.87-4.14,4.32l.84-1.36c-15.58-4.33-28.43,12.78-35.89,23.93,1.25-.06-9,5.27-14.86,8.38s-11.64,7-17.42,10.52c-10.95,6.71-21.68,13.78-32.46,20.76-16.5,10.69-35,20.69-47.35,36.4-4,5-6.84,11.08-11.73,15.3-.95.82-2.29,1.19-3.09,2.16-1.7,2-3.7,4-4.7,5l-.16-.83V.38h594Z"/><path class="cls-3" d="M594.54,584.38c-3-5-.94-1.06-4.14-7.9-3.77-8.05-7.36-16.18-11.54-24-8.6-16.17-20.16-30.82-36.82-39.16-25.07-12.56-49.68-26.51-75-38.41-7.2-3.36-13.91-7.66-21-11.16a69.08,69.08,0,0,0-11-4.47c-2.27-.67-7-.29-8.81-1.59-3-2.14-4-8.66-5.43-11.91a86.76,86.76,0,0,0-8.05-15.25c-4.67-6.81-12.56-15.26-21.17-16.49l-4.5-4.13s-3-19.29-2-25.64c6.35-7.14,11.52-16,12.32-27.52V330.94l.66-10a16.7,16.7,0,0,0,1.82,6.4c1.16,2.23,3.87,2.43,6.12,2.15,11.45-1.43,15.75-20.05,15.75-20.05,0-15.75,7.16-30.07,7.16-30.07s2.86-21.47,1.43-25.77-4.3-4.3-4.3-4.3l-1.43-18.61L430.3,235l-4.3-8.59c-1.43-2.86-5.72-18.61-5.72-18.61l7.16,2.86-10-14.32s15.75,12.89,12.89,10-15.75-20.05-15.75-20.05l-7.16-11.46,2.86-14.32c-1.43-12.88-12.89-31.5-12.89-31.5C328.63,38.83,244.15,68.9,244.15,68.9,115.28,119,178.28,197.77,178.28,197.77v25.78h4.3l-2.87,4.3c-2.86,4.29-1.43,28.63-1.43,28.63l1.43-2.86,1.43,1.43v5.73l-1.43,8.59,2.87-1.43L184,275.1c-1.27,13.95-1.84,27.36,1.12,41.19.61,2.87,1.28,5.39,3.17,7.49,12.89,14.32,17.19,0,17.19,0-2.87,45.83,11.45,65.87,11.45,65.87s-2,11.5-4.28,23.65l-.05.29a39.31,39.31,0,0,0-8.38,5.28c-9,6.79-16.8,15.11-24.09,23.63-2.95,3.45-5.6,7.21-8.8,10.42-1.44,1.44-2.81,2.87-4.14,4.32l.84-1.36c-15.58-4.33-28.43,12.78-35.89,23.93,1.25-.06-9,5.27-14.86,8.38s-11.64,7-17.42,10.52c-10.95,6.71-21.68,13.78-32.46,20.76-16.5,10.69-35,20.69-47.35,36.4-4,5-6.84,11.08-11.73,15.3-.95.82-2.29,1.19-3.09,2.16-1.7,2-3.7,4-4.7,5l-.16-.83V.38h594v583Z"/></g></g></svg>