<?xml version="1.0" encoding="UTF-8"?>
<svg width="32px" height="25px" viewBox="0 0 32 25" version="1.1" xmlns="http://www.w3.org/2000/svg" xmlns:xlink="http://www.w3.org/1999/xlink">
    <!-- Generator: Sketch 41.2 (35397) - http://www.bohemiancoding.com/sketch -->
    <title>Icon 32x32</title>
    <desc>Created with Sketch.</desc>
    <defs></defs>
    <g id="Baikal-Startup-Components" stroke="none" stroke-width="1" fill="none" fill-rule="evenodd">
        <g id="Advantages" transform="translate(-458.000000, -4814.000000)" fill="#4C5365">
            <g id="Advantages-#8" transform="translate(0.000000, 4730.000000)">
                <path d="M459.25,96.336 L476.861,96.336 C477.176,96.336 477.479,96.218 477.71,96.004 L488.349,86.168 C488.727,85.818 488.852,85.273 488.664,84.794 C488.477,84.315 488.015,84 487.5,84 L469.888,84 C469.573,84 469.271,84.118 469.039,84.332 L458.401,94.168 C458.024,94.517 457.899,95.062 458.086,95.542 C458.274,96.02 458.735,96.336 459.25,96.336 L459.25,96.336 Z M470.377,86.5 L484.307,86.5 L476.372,93.836 L462.443,93.836 L470.377,86.5 Z M459.25,102.476 L478.74,102.476 C479.072,102.476 479.391,102.345 479.625,102.109 L488.998,92.708 C489.486,92.219 489.484,91.428 488.996,90.94 C488.507,90.451 487.716,90.453 487.229,90.942 L478.222,99.976 L459.25,99.976 C458.56,99.976 458,100.536 458,101.226 C458,101.917 458.56,102.476 459.25,102.476 Z M489.633,98.057 C489.144,97.567 488.354,97.569 487.864,98.058 L479.45,106.5 L459.25,106.5 C458.56,106.5 458,107.059 458,107.75 C458,108.44 458.56,109 459.25,109 L479.969,109 C480.301,109 480.619,108.868 480.855,108.633 L489.636,99.824 C490.123,99.335 490.121,98.544 489.633,98.057 Z" id="Icon-32x32"></path>
            </g>
        </g>
    </g>
</svg>